<?xml version="1.0" encoding="UTF-8"?>
<svg version="1.1" viewBox="0 0 2000 2000" width="500" height="500" xmlns="http://www.w3.org/2000/svg">

  <defs>
    <mask id="drawMask">
      <rect width="100%" height="100%" fill="black"/>
      <g>
        <path transform="translate(0)" d="m0 0h2e3v2e3h-2e3z" class="mline" style="--d:0.00s"/><path transform="translate(1026,677)" d="m0 0 9 1 17 6 18 8 21 12 16 12 13 11 10 9 12 13 12 16 8 13 8 15 7 20 3 15v29l-3 18-7 20-8 15-8 11-12 13-11 10-14 10-16 9-15 7-15 6-22 7-27 6-41 6-35 6-30 8-21 8-17 10-11 9-10 10-9 13-7 14-4 15-1 7v18l5 25 8 20 12 19 13 15 11 11 14 11 14 9 5 4 10 4 7 21 7 12 8 9 14 10 14 8 16 7 23 7 30 6 9 1 20 1 4 2-1 5-5 3-10 1h-13l-19-2-26-6-17-5-21-9-19-10-16-10-15-11-14-11-13-11-7-6-16-16-7-8-10-12-13-18-9-15-8-16-6-17-4-17-1-7v-27l3-16 4-13 8-16 10-14 11-12 13-10 13-8 17-8 13-4 18-3 1-1h-30l-18 4-18 6-14 8-11 9-11 11-10 15-7 15-6 18-2 13v29l2 15 7 25 10 23 8 15 14 21 12 14 9 10 7 8 15 15 8 7 13 11 16 12 21 14 22 12 13 6 17 7 26 8 28 5 2 1v2l-3 1h-39l-15-3-16-4 12 22 13 19 9 11 8 9 8 7 8 6 24 11 7 10 10 19 12 16 10 11 9 12 2 9-4 6-9-2-16-8-11-7-12-11-11-7-16-5-8-6-5-8-1-4v-15l-10-9-16-12-16-13-12-11-12-12-18-22-9-14-10-19-5-12-5-5-14-10-13-10-14-12-12-11-8-8-7-8-11-13-14-19-11-19-8-16-8-20-7-26-2-19v-31l2-18 4-13 6-16 8-14 10-14 12-13 14-11 15-9 17-7 20-6 15-2h31l41 4h32l35-4 16-3 26-8 16-7 17-10 9-7 10-9 9-10 7-10 6-10 6-17 2-9 1-11v-16l-2-14-5-16-5-13-8-15-10-14-9-10-15-15-18-13-16-9-14-7-17-7-12-4-5-4-2-6 5-6z" class="mline" style="--d:0.22s"/><path transform="translate(1213,526)" d="m0 0h6l1 4-6 7-13 4-29 5-3 3 10 2 5 2 5 5v5l-2 2-10-1h-20l-12 4-6 5h-2l-2 4-6 9-5 13-3 12-1 9v14l2 15 5 20 6 15 9 17 12 17 12 14 11 13 12 16 10 15 10 19 9 23 6 22 2 16v30l-3 19-7 25-7 16-12 19-10 13-12 13-11 9-10 8-14 9-22 12-19 8-36 12-47 13-30 10-15 8-10 10-5 8-3 9-1 11 3 12 7 14 9 10 10 7 10 6 21 8 23 6 17 2h38l21-2 25-6 30-10 21-10 18-11 16-12 9-6 7-1 6 5 1 2v7l-8 9-11 9-13 10-15 10-16 8-16 7-19 7-25 7-12 2-26 2h-26l-25-2-20-4-21-7-16-8-10-6-14-11-10-11-7-11-6-14-2-7-1-15 2-12-7 10-3 8-2 17 3 17 4 10 7 10 9 10 12 10 18 11 9 4 10 4 20 7 29 6 23 2h17l22-1 27-5 17-4 22-8 32-16 6 1 6 7-2 5-5 5-11 8-18 10-18 8-24 8-26 6-20 2h-29l-17-1-28-5-21-5-14-5-18-8-16-8-13-8-10-7-16-12-12-11-9-9-13-17-6-11-7-17-2-13v-15l2-15 7-15 7-11 9-10 8-7 14-9 15-7 18-6 28-6 44-6 38-8 27-8 22-9 19-9 16-9 7-4 8-6 4 1-15 15h-2v2l-17 13-16 10-15 8-12 5-28 10-21 6-32 7-33 7-27 9-16 8-11 8-8 8-6 9-6 12-2 8v15l3 14 8 18-3-14 1-13 6-19 7-12 9-10 10-8 10-6 18-7 30-8 24-5 28-7 25-8 21-8 19-8 15-8 19-12 14-11 12-11 9-9 13-17 9-15 7-17 6-22 2-14v-34l-3-19-8-27-11-24-6-11-9-13-7-9-12-14-7-7-8-7-10-9-10-8-8-20-7-24-1-6v-34l5-21 6-15 9-15 11-12 11-9 16-8 16-5 10-2z" class="mline" style="--d:0.44s"/><path transform="translate(1245,898)" d="m0 0h8l4 4v16l-5 25-6 18-7 15-8 14-11 14-9 10-7 8-13 12-13 10-16 10-16 8-15 7-22 8-24 6-39 7 24 2h17l22-2 21-5 18-6 18-8 16-9 17-12 14-12 12-12 9-11 10-14 9-17 6-14 4-4h7l6 5v7l-7 20-8 17-8 12-9 12-12 14-14 14-11 9-13 9-21 12-20 9-24 8-29 6h-45l-29-6-17-7-6 1-6 5 1 4 6 5 14 7 18 6 12 2 12 1h36l23-3 30-8 25-10 17-9 12-8 9-7 11-9 19-19 9-11 8-10 2-1h7l5 4 1 5-5 10-14 18-11 12-15 15-20 15-19 12-19 10-26 10-25 7-17 3-12 1h-42l-25-4-20-7-11-6-11-8-8-9-4-8v-12l3-7 7-8 9-6 15-7 22-7 24-6 31-9 27-9 23-10 20-11 16-11 13-11 7-6 7-8 7-7 11-15 10-17 8-19 10-35 2-3z" class="mline" style="--d:0.66s"/><path transform="translate(951,457)" d="m0 0 4 2 1 2v12l-3 7-10 16 4-1 11-5 4-1 2 2-1 7-9 8-6 5h-2l-2 4-3 5-4 17-6 10-5 4 1 6 8 18 8 14 12 17 12 15 9 14 8 16 7 20 7 24 5 16 4 13 7 19 7 13 7 9 11 7 7 2 18 1 10 4 9 5 8 9 3 8v12l-2 4 1 5 7 14v9l-6 15-8 10-10 9-10 5-8 3h-6l-16-8-13-10-10-9-12-12-11-14-12-18-8-18-6-25v-54l-4-21-10-25-20-38-8-19-7-21-6-23-2-12v-22l2-10 5-12 6-11 11-16 10-14 9-17z" class="mline" style="--d:0.88s"/><path transform="translate(1034,720)" d="m0 0 9 1 14 5 16 8 16 10 14 12 8 8 9 12 8 14 4 8 7 21 2 16-1 17-4 15-5 12-7 11-11 13-11 10-13 8-15 7-21 5-7 1h-25l-23-3-15-4-20-8-15-7-24-11-25-8-18-2h-16l-16 2-21 7-19 10-13 10-11 11-10 13-12 20-7 16-7 26-2 13-1 12v25l2 23 4 20 2 7v7l-3 3-7 1-4-1-8-25-5-26-2-16v-30l2-19 5-23 7-20 8-17 8-12 10-13 19-19 17-12 14-8 22-8 15-3 8-1h27l20 3 16 5 15 6 16 8 16 7 9 4 20 7 19 3h26l18-3 12-5 10-5 10-8 8-8 8-12 5-11 3-16v-17l-4-19-8-16-7-10-9-10-12-9-13-8-18-8-18-6-2-3v-7l4-5z" class="mline" style="--d:1.10s"/><path transform="translate(892,789)" d="m0 0h18l16 3 17 7 10 8 8 9 13 22 12 16 9 10 11 11 13 10 8 5-3 2-25-5-20-7-17-9-14-10-14-12-13-10-14-7-7-2-9-1h-14l-19 3-21 8-19 10-11 7-14 10-13 11-16 16h-2l-2 4-11 13-3 3-2-1 8-16 11-21 11-16 9-11 19-19 17-13 17-10 20-9 17-6z" class="mline" style="--d:1.32s"/><path transform="translate(892,691)" d="m0 0h6l8 5 3 7 2 14 4 11 4 6 7 6 12 6 10 4v33l-6-2-12-5-15-3h-25l-18 3-14 4-15 6-17 9h-3l-4-5-4-8-4-14v-14l4-16 3-6 9-10 13-7 10-3 4-6 5-9 2-2 7 1 4 2h3l2-3 10 1z" class="mline" style="--d:1.54s"/><path transform="translate(865,914)" d="m0 0h32l15 3 21 7 18 8 19 10 7 4v1l-14-1-20-3-26-5-20-2h-18l-22 3-17 6-10 5-14 10-14 14-12 17-8 16-4 6-7 1-6-3-1-1v-8l9-21 9-14 10-13 10-11 13-10 16-9 14-5 14-4z" class="mline" style="--d:1.76s"/><path transform="translate(953,1249)" d="m0 0 12 4 15 6 21 7 29 6 17 2h36l19-3 24-6 9-3 6 1 4 5v6l-6 5-13 5-22 6-13 2-15 1h-23l-20-2-27-7-21-9-14-9-18-14z" class="mline" style="--d:1.98s"/>
      </g>
    </mask>
  </defs>


  <style><![CDATA[
    :root{
      --duration: 16s;
      --ease: cubic-bezier(.22,.61,.36,1);
    }

    /* Mask drawing lines (white reveals original artwork) */
    .mline{
      fill: none;
      stroke: white;
      stroke-width: 10.5;           /* adjust thickness of reveal */
      stroke-linecap: round;
      stroke-linejoin: round;
      stroke-dasharray: 1400;
      stroke-dashoffset: 1400;
      animation: draw var(--duration) var(--ease) forwards;
      animation-delay: var(--d, 0s);
    }

    /* Once reveal is done, we gently settle into an idle breathe */
    svg.idle{
      transform-origin: center;
      animation: breathe 9s ease-in-out infinite;
    }

    @keyframes draw{
      to{ stroke-dashoffset: 0; }
    }
    @keyframes breathe{
      0%,100%{ transform: scale(1); }
      50%{ transform: scale(1.01); }
    }

    @media (prefers-reduced-motion: reduce){
      .mline, svg.idle{ animation: none !important; }
      .mline{ stroke-dashoffset: 0; }
    }
  ]]></style>

  <script><![CDATA[
    (function(){
      var svg = document.currentScript.ownerDocument.documentElement;
      setTimeout(function(){ svg.classList.add('idle'); }, 17500);
    })();
  ]]></script>

  <g id="art" mask="url(#drawMask)">
<path transform="translate(1026,677)" d="m0 0 9 1 17 6 18 8 21 12 16 12 13 11 10 9 12 13 12 16 8 13 8 15 7 20 3 15v29l-3 18-7 20-8 15-8 11-12 13-11 10-14 10-16 9-15 7-15 6-22 7-27 6-41 6-35 6-30 8-21 8-17 10-11 9-10 10-9 13-7 14-4 15-1 7v18l5 25 8 20 12 19 13 15 11 11 14 11 14 9 5 4 10 4 7 21 7 12 8 9 14 10 14 8 16 7 23 7 30 6 9 1 20 1 4 2-1 5-5 3-10 1h-13l-19-2-26-6-17-5-21-9-19-10-16-10-15-11-14-11-13-11-7-6-16-16-7-8-10-12-13-18-9-15-8-16-6-17-4-17-1-7v-27l3-16 4-13 8-16 10-14 11-12 13-10 13-8 17-8 13-4 18-3 1-1h-30l-18 4-18 6-14 8-11 9-11 11-10 15-7 15-6 18-2 13v29l2 15 7 25 10 23 8 15 14 21 12 14 9 10 7 8 15 15 8 7 13 11 16 12 21 14 22 12 13 6 17 7 26 8 28 5 2 1v2l-3 1h-39l-15-3-16-4 12 22 13 19 9 11 8 9 8 7 8 6 24 11 7 10 10 19 12 16 10 11 9 12 2 9-4 6-9-2-16-8-11-7-12-11-11-7-16-5-8-6-5-8-1-4v-15l-10-9-16-12-16-13-12-11-12-12-18-22-9-14-10-19-5-12-5-5-14-10-13-10-14-12-12-11-8-8-7-8-11-13-14-19-11-19-8-16-8-20-7-26-2-19v-31l2-18 4-13 6-16 8-14 10-14 12-13 14-11 15-9 17-7 20-6 15-2h31l41 4h32l35-4 16-3 26-8 16-7 17-10 9-7 10-9 9-10 7-10 6-10 6-17 2-9 1-11v-16l-2-14-5-16-5-13-8-15-10-14-9-10-15-15-18-13-16-9-14-7-17-7-12-4-5-4-2-6 5-6z" fill="#ffffff"/>
<path transform="translate(1213,526)" d="m0 0h6l1 4-6 7-13 4-29 5-3 3 10 2 5 2 5 5v5l-2 2-10-1h-20l-12 4-6 5h-2l-2 4-6 9-5 13-3 12-1 9v14l2 15 5 20 6 15 9 17 12 17 12 14 11 13 12 16 10 15 10 19 9 23 6 22 2 16v30l-3 19-7 25-7 16-12 19-10 13-12 13-11 9-10 8-14 9-22 12-19 8-36 12-47 13-30 10-15 8-10 10-5 8-3 9-1 11 3 12 7 14 9 10 10 7 10 6 21 8 23 6 17 2h38l21-2 25-6 30-10 21-10 18-11 16-12 9-6 7-1 6 5 1 2v7l-8 9-11 9-13 10-15 10-16 8-16 7-19 7-25 7-12 2-26 2h-26l-25-2-20-4-21-7-16-8-10-6-14-11-10-11-7-11-6-14-2-7-1-15 2-12-7 10-3 8-2 17 3 17 4 10 7 10 9 10 12 10 18 11 9 4 10 4 20 7 29 6 23 2h17l22-1 27-5 17-4 22-8 32-16 6 1 6 7-2 5-5 5-11 8-18 10-18 8-24 8-26 6-20 2h-29l-17-1-28-5-21-5-14-5-18-8-16-8-13-8-10-7-16-12-12-11-9-9-13-17-6-11-7-17-2-13v-15l2-15 7-15 7-11 9-10 8-7 14-9 15-7 18-6 28-6 44-6 38-8 27-8 22-9 19-9 16-9 7-4 8-6 4 1-15 15h-2v2l-17 13-16 10-15 8-12 5-28 10-21 6-32 7-33 7-27 9-16 8-11 8-8 8-6 9-6 12-2 8v15l3 14 8 18-3-14 1-13 6-19 7-12 9-10 10-8 10-6 18-7 30-8 24-5 28-7 25-8 21-8 19-8 15-8 19-12 14-11 12-11 9-9 13-17 9-15 7-17 6-22 2-14v-34l-3-19-8-27-11-24-6-11-9-13-7-9-12-14-7-7-8-7-10-9-10-8-8-20-7-24-1-6v-34l5-21 6-15 9-15 11-12 11-9 16-8 16-5 10-2z" fill="#ffffff"/>
<path transform="translate(1245,898)" d="m0 0h8l4 4v16l-5 25-6 18-7 15-8 14-11 14-9 10-7 8-13 12-13 10-16 10-16 8-15 7-22 8-24 6-39 7 24 2h17l22-2 21-5 18-6 18-8 16-9 17-12 14-12 12-12 9-11 10-14 9-17 6-14 4-4h7l6 5v7l-7 20-8 17-8 12-9 12-12 14-14 14-11 9-13 9-21 12-20 9-24 8-29 6h-45l-29-6-17-7-6 1-6 5 1 4 6 5 14 7 18 6 12 2 12 1h36l23-3 30-8 25-10 17-9 12-8 9-7 11-9 19-19 9-11 8-10 2-1h7l5 4 1 5-5 10-14 18-11 12-15 15-20 15-19 12-19 10-26 10-25 7-17 3-12 1h-42l-25-4-20-7-11-6-11-8-8-9-4-8v-12l3-7 7-8 9-6 15-7 22-7 24-6 31-9 27-9 23-10 20-11 16-11 13-11 7-6 7-8 7-7 11-15 10-17 8-19 10-35 2-3z" fill="#ffffff"/>
<path transform="translate(951,457)" d="m0 0 4 2 1 2v12l-3 7-10 16 4-1 11-5 4-1 2 2-1 7-9 8-6 5h-2l-2 4-3 5-4 17-6 10-5 4 1 6 8 18 8 14 12 17 12 15 9 14 8 16 7 20 7 24 5 16 4 13 7 19 7 13 7 9 11 7 7 2 18 1 10 4 9 5 8 9 3 8v12l-2 4 1 5 7 14v9l-6 15-8 10-10 9-10 5-8 3h-6l-16-8-13-10-10-9-12-12-11-14-12-18-8-18-6-25v-54l-4-21-10-25-20-38-8-19-7-21-6-23-2-12v-22l2-10 5-12 6-11 11-16 10-14 9-17z" fill="#ffffff"/>
<path transform="translate(1034,720)" d="m0 0 9 1 14 5 16 8 16 10 14 12 8 8 9 12 8 14 4 8 7 21 2 16-1 17-4 15-5 12-7 11-11 13-11 10-13 8-15 7-21 5-7 1h-25l-23-3-15-4-20-8-15-7-24-11-25-8-18-2h-16l-16 2-21 7-19 10-13 10-11 11-10 13-12 20-7 16-7 26-2 13-1 12v25l2 23 4 20 2 7v7l-3 3-7 1-4-1-8-25-5-26-2-16v-30l2-19 5-23 7-20 8-17 8-12 10-13 19-19 17-12 14-8 22-8 15-3 8-1h27l20 3 16 5 15 6 16 8 16 7 9 4 20 7 19 3h26l18-3 12-5 10-5 10-8 8-8 8-12 5-11 3-16v-17l-4-19-8-16-7-10-9-10-12-9-13-8-18-8-18-6-2-3v-7l4-5z" fill="#ffffff"/>
<path transform="translate(892,789)" d="m0 0h18l16 3 17 7 10 8 8 9 13 22 12 16 9 10 11 11 13 10 8 5-3 2-25-5-20-7-17-9-14-10-14-12-13-10-14-7-7-2-9-1h-14l-19 3-21 8-19 10-11 7-14 10-13 11-16 16h-2l-2 4-11 13-3 3-2-1 8-16 11-21 11-16 9-11 19-19 17-13 17-10 20-9 17-6z" fill="#ffffff"/>
<path transform="translate(892,691)" d="m0 0h6l8 5 3 7 2 14 4 11 4 6 7 6 12 6 10 4v33l-6-2-12-5-15-3h-25l-18 3-14 4-15 6-17 9h-3l-4-5-4-8-4-14v-14l4-16 3-6 9-10 13-7 10-3 4-6 5-9 2-2 7 1 4 2h3l2-3 10 1z" fill="#ffffff"/>
<path transform="translate(865,914)" d="m0 0h32l15 3 21 7 18 8 19 10 7 4v1l-14-1-20-3-26-5-20-2h-18l-22 3-17 6-10 5-14 10-14 14-12 17-8 16-4 6-7 1-6-3-1-1v-8l9-21 9-14 10-13 10-11 13-10 16-9 14-5 14-4z" fill="#ffffff"/>
<path transform="translate(953,1249)" d="m0 0 12 4 15 6 21 7 29 6 17 2h36l19-3 24-6 9-3 6 1 4 5v6l-6 5-13 5-22 6-13 2-15 1h-23l-20-2-27-7-21-9-14-9-18-14z" fill="#ffffff"/>
  </g>
</svg>
